<svg width="24" height="24" viewBox="0 0 24 24" fill="none" xmlns="http://www.w3.org/2000/svg">
<path d="M21.75 13.4999C21.7482 15.0907 21.1155 16.6158 19.9907 17.7407C18.8659 18.8655 17.3407 19.4982 15.75 19.4999H7.49998C7.30107 19.4999 7.1103 19.4209 6.96965 19.2803C6.829 19.1396 6.74998 18.9488 6.74998 18.7499C6.74998 18.551 6.829 18.3603 6.96965 18.2196C7.1103 18.0789 7.30107 17.9999 7.49998 17.9999H15.75C16.9435 17.9999 18.088 17.5258 18.932 16.6819C19.7759 15.838 20.25 14.6934 20.25 13.4999C20.25 12.3065 19.7759 11.1619 18.932 10.3179C18.088 9.47403 16.9435 8.99993 15.75 8.99993H4.81029L8.03061 12.2193C8.17134 12.36 8.2504 12.5509 8.2504 12.7499C8.2504 12.949 8.17134 13.1398 8.03061 13.2806C7.88987 13.4213 7.699 13.5003 7.49998 13.5003C7.30096 13.5003 7.11009 13.4213 6.96935 13.2806L2.46935 8.78055C2.39962 8.7109 2.3443 8.62818 2.30656 8.53713C2.26882 8.44609 2.24939 8.34849 2.24939 8.24993C2.24939 8.15137 2.26882 8.05377 2.30656 7.96272C2.3443 7.87168 2.39962 7.78896 2.46935 7.7193L6.96935 3.2193C7.11009 3.07857 7.30096 2.99951 7.49998 2.99951C7.699 2.99951 7.88987 3.07857 8.0306 3.2193C8.17133 3.36003 8.2504 3.55091 8.2504 3.74993C8.2504 3.94895 8.17134 4.13982 8.03061 4.28055L4.81029 7.49993H15.75C17.3407 7.50167 18.8659 8.13437 19.9907 9.25921C21.1155 10.384 21.7482 11.9092 21.75 13.4999Z" fill="black"/>
</svg>
